<svg width="39" height="38" viewBox="0 0 39 38" fill="none" xmlns="http://www.w3.org/2000/svg">
<g id="clear_day">
<mask id="mask0_248_138" style="mask-type:alpha" maskUnits="userSpaceOnUse" x="0" y="0" width="39" height="38">
<rect id="Bounding box" x="0.195312" width="38" height="38" fill="#D9D9D9"/>
</mask>
<g mask="url(#mask0_248_138)">
<path id="clear_day_2" d="M19.1952 7.91658C18.7466 7.91658 18.3706 7.76485 18.0671 7.46138C17.7636 7.1579 17.6119 6.78186 17.6119 6.33325V3.16659C17.6119 2.71797 17.7636 2.34193 18.0671 2.03846C18.3706 1.73499 18.7466 1.58325 19.1952 1.58325C19.6438 1.58325 20.0199 1.73499 20.3234 2.03846C20.6268 2.34193 20.7786 2.71797 20.7786 3.16659V6.33325C20.7786 6.78186 20.6268 7.1579 20.3234 7.46138C20.0199 7.76485 19.6438 7.91658 19.1952 7.91658ZM27.0327 11.1624C26.7425 10.8721 26.5973 10.5093 26.5973 10.0739C26.5973 9.63846 26.7425 9.26242 27.0327 8.94575L29.2494 6.6895C29.5661 6.37284 29.9421 6.2145 30.3775 6.2145C30.8129 6.2145 31.189 6.37284 31.5056 6.6895C31.7959 6.97978 31.9411 7.34922 31.9411 7.79783C31.9411 8.24645 31.7959 8.61589 31.5056 8.90617L29.2494 11.1624C28.9591 11.4527 28.5897 11.5978 28.1411 11.5978C27.6925 11.5978 27.323 11.4527 27.0327 11.1624ZM31.8619 20.5833C31.4133 20.5833 31.0372 20.4315 30.7338 20.128C30.4303 19.8246 30.2786 19.4485 30.2786 18.9999C30.2786 18.5513 30.4303 18.1753 30.7338 17.8718C31.0372 17.5683 31.4133 17.4166 31.8619 17.4166H35.0286C35.4772 17.4166 35.8532 17.5683 36.1567 17.8718C36.4602 18.1753 36.6119 18.5513 36.6119 18.9999C36.6119 19.4485 36.4602 19.8246 36.1567 20.128C35.8532 20.4315 35.4772 20.5833 35.0286 20.5833H31.8619ZM19.1952 36.4166C18.7466 36.4166 18.3706 36.2648 18.0671 35.9614C17.7636 35.6579 17.6119 35.2819 17.6119 34.8333V31.6666C17.6119 31.218 17.7636 30.8419 18.0671 30.5385C18.3706 30.235 18.7466 30.0833 19.1952 30.0833C19.6438 30.0833 20.0199 30.235 20.3234 30.5385C20.6268 30.8419 20.7786 31.218 20.7786 31.6666V34.8333C20.7786 35.2819 20.6268 35.6579 20.3234 35.9614C20.0199 36.2648 19.6438 36.4166 19.1952 36.4166ZM9.14106 11.1624L6.88481 8.94575C6.56815 8.62909 6.40981 8.24645 6.40981 7.79783C6.40981 7.34922 6.56815 6.97978 6.88481 6.6895C7.17509 6.39922 7.54454 6.25409 7.99315 6.25409C8.44176 6.25409 8.8112 6.39922 9.10148 6.6895L11.3577 8.94575C11.648 9.23603 11.7931 9.60547 11.7931 10.0541C11.7931 10.5027 11.648 10.8721 11.3577 11.1624C11.0411 11.4527 10.6716 11.5978 10.2494 11.5978C9.82718 11.5978 9.45773 11.4527 9.14106 11.1624ZM29.2494 31.3103L27.0327 29.0541C26.7425 28.7374 26.5973 28.3614 26.5973 27.926C26.5973 27.4905 26.7425 27.1277 27.0327 26.8374C27.323 26.5471 27.6859 26.402 28.1213 26.402C28.5567 26.402 28.9327 26.5471 29.2494 26.8374L31.5056 29.0541C31.8223 29.3444 31.9741 29.7138 31.9609 30.1624C31.9477 30.611 31.7959 30.9937 31.5056 31.3103C31.189 31.627 30.8063 31.7853 30.3577 31.7853C29.9091 31.7853 29.5397 31.627 29.2494 31.3103ZM3.3619 20.5833C2.91329 20.5833 2.53724 20.4315 2.23377 20.128C1.9303 19.8246 1.77856 19.4485 1.77856 18.9999C1.77856 18.5513 1.9303 18.1753 2.23377 17.8718C2.53724 17.5683 2.91329 17.4166 3.3619 17.4166H6.52856C6.97718 17.4166 7.35322 17.5683 7.65669 17.8718C7.96016 18.1753 8.1119 18.5513 8.1119 18.9999C8.1119 19.4485 7.96016 19.8246 7.65669 20.128C7.35322 20.4315 6.97718 20.5833 6.52856 20.5833H3.3619ZM6.88481 31.3103C6.59454 31.0201 6.4494 30.6506 6.4494 30.202C6.4494 29.7534 6.59454 29.3839 6.88481 29.0937L9.14106 26.8374C9.43134 26.5471 9.79419 26.402 10.2296 26.402C10.665 26.402 11.0411 26.5471 11.3577 26.8374C11.6744 27.1541 11.8327 27.5301 11.8327 27.9655C11.8327 28.401 11.6744 28.777 11.3577 29.0937L9.14106 31.3103C8.8244 31.627 8.44176 31.7853 7.99315 31.7853C7.54454 31.7853 7.17509 31.627 6.88481 31.3103Z" fill="#276F72"/>
<path id="mood" d="M22.3453 18.1C22.7203 18.1 23.0391 17.9688 23.3016 17.7062C23.5641 17.4437 23.6953 17.125 23.6953 16.75C23.6953 16.375 23.5641 16.0563 23.3016 15.7937C23.0391 15.5312 22.7203 15.4 22.3453 15.4C21.9703 15.4 21.6516 15.5312 21.3891 15.7937C21.1266 16.0563 20.9953 16.375 20.9953 16.75C20.9953 17.125 21.1266 17.4437 21.3891 17.7062C21.6516 17.9688 21.9703 18.1 22.3453 18.1ZM16.0453 18.1C16.4203 18.1 16.7391 17.9688 17.0016 17.7062C17.2641 17.4437 17.3953 17.125 17.3953 16.75C17.3953 16.375 17.2641 16.0563 17.0016 15.7937C16.7391 15.5312 16.4203 15.4 16.0453 15.4C15.6703 15.4 15.3516 15.5312 15.0891 15.7937C14.8266 16.0563 14.6953 16.375 14.6953 16.75C14.6953 17.125 14.8266 17.4437 15.0891 17.7062C15.3516 17.9688 15.6703 18.1 16.0453 18.1ZM19.1953 23.95C20.2153 23.95 21.1416 23.6613 21.9741 23.0837C22.8066 22.5063 23.4103 21.745 23.7853 20.8H14.6053C14.9803 21.745 15.5841 22.5063 16.4166 23.0837C17.2491 23.6613 18.1753 23.95 19.1953 23.95ZM19.1953 28C17.9503 28 16.7803 27.7638 15.6853 27.2912C14.5903 26.8187 13.6378 26.1775 12.8278 25.3675C12.0178 24.5575 11.3766 23.605 10.9041 22.51C10.4316 21.415 10.1953 20.245 10.1953 19C10.1953 17.755 10.4316 16.585 10.9041 15.49C11.3766 14.395 12.0178 13.4425 12.8278 12.6325C13.6378 11.8225 14.5903 11.1812 15.6853 10.7088C16.7803 10.2362 17.9503 10 19.1953 10C20.4403 10 21.6103 10.2362 22.7053 10.7088C23.8003 11.1812 24.7528 11.8225 25.5628 12.6325C26.3728 13.4425 27.0141 14.395 27.4866 15.49C27.9591 16.585 28.1953 17.755 28.1953 19C28.1953 20.245 27.9591 21.415 27.4866 22.51C27.0141 23.605 26.3728 24.5575 25.5628 25.3675C24.7528 26.1775 23.8003 26.8187 22.7053 27.2912C21.6103 27.7638 20.4403 28 19.1953 28Z" fill="#276F72"/>
</g>
</g>
</svg>
